# xmcd
#
# Track frame offsets:
#	150
#	3592
#	24101
#	44475
#	61109
#	80008
#	102977
#	122694
#	143184
#	160625
#
# Disc length: 2507 seconds
# Revision: 0
# Processed by: cddbd v1.5.2PL0 Copyright (c) Steve Scherf et al.
# Submitted via: dBpowerAMP V12.0
#
DISCID=7609c90a
DTITLE=Smaxone - The Red Album
DYEAR=2007
DGENRE=Metal
TTITLE0=Red
TTITLE1=Go Back
TTITLE2=Smackzone
TTITLE3=Somewhere
TTITLE4=So Be It!
TTITLE5=Dead in the Head
TTITLE6=The Glory of You and Me
TTITLE7=Dead.Gone.Erased
TTITLE8=Charlie
TTITLE9=Our Curse
EXTD=
EXTT0=
EXTT1=
EXTT2=
EXTT3=
EXTT4=
EXTT5=
EXTT6=
EXTT7=
EXTT8=
EXTT9=
PLAYORDER=
